<?xml version="1.0" encoding="utf-8"?>
<!-- Generator: Adobe Illustrator 28.3.0, SVG Export Plug-In . SVG Version: 6.00 Build 0)  -->
<svg version="1.1" id="Outline" xmlns="http://www.w3.org/2000/svg" xmlns:xlink="http://www.w3.org/1999/xlink" x="0px" y="0px"
	 viewBox="0 0 512 512" style="enable-background:new 0 0 512 512;" xml:space="preserve">
<style type="text/css">
	.st0{fill:#FFA656;}
</style>
<path class="st0" d="M279.5,405.3c-11.8,0-21.3-9.6-21.2-21.4c0-5.7,2.3-11.1,6.3-15.1l98.1-97.7c8.4-8.3,8.4-21.8,0.1-30.2
	c0,0-0.1-0.1-0.1-0.1l-98.1-97.7c-8.4-8.3-8.4-21.8-0.1-30.2c0,0,0.1-0.1,0.1-0.1c8.3-8.3,21.8-8.3,30.1,0l97.9,97.9
	c25,25,25,65.5,0,90.5l-97.9,97.9C290.6,403.1,285.1,405.4,279.5,405.3z"/>
<path class="st0" d="M130.1,405.3c-11.8,0-21.3-9.6-21.2-21.4c0-5.7,2.3-11.1,6.3-15.1L228.1,256L115.2,143.1
	c-8.4-8.3-8.4-21.8-0.1-30.2c0,0,0.1-0.1,0.1-0.1c8.3-8.3,21.8-8.3,30.1,0l128,128c8.4,8.3,8.4,21.8,0.1,30.2c0,0-0.1,0.1-0.1,0.1
	l-128,128C141.3,403.1,135.8,405.4,130.1,405.3z"/>
</svg>
