<?xml version="1.0" encoding="UTF-8"?>
<svg id="_圖層_1" data-name="圖層 1" xmlns="http://www.w3.org/2000/svg" viewBox="0 0 30.42 31.55">
  <defs>
    <style>
      .cls-1 {
        fill: #2071af;
        stroke-width: 0px;
      }
    </style>
  </defs>
  <path class="cls-1" d="M30.3.15c-.15-.09-.52-.21-.48-.12l.6.29-.12-.17Z"/>
  <path class="cls-1" d="M28.98.16c.27.2.76.49,1.34.67-.56-.31-.31-.23-.98-.59-.05-.09.24-.04.47.06-.15-.09.18-.05-.2-.24-.51-.1-.57,0-.22.27-.14-.03-.3-.12-.41-.17Z"/>
  <path class="cls-1" d="M25.33,6.1h.09s-.07-.01-.09,0Z"/>
  <path class="cls-1" d="M23.2,9.8s-.05-.08-.11-.1c.03.05.05.09.11.1Z"/>
  <path class="cls-1" d="M22.22,10.13s.04-.01.06-.02c-.06-.01-.1-.01-.06.02Z"/>
  <path class="cls-1" d="M25.33,6.1l-.24.02c.19.1.17.01.24-.02Z"/>
  <path class="cls-1" d="M30.1,1.64s-.07-.08-.14-.12c.02.03.03.06.04.08.03.01.06.03.1.04Z"/>
  <path class="cls-1" d="M25.6,4.17v-.03c-.05-.04-.13-.08-.22-.13l.22.17Z"/>
  <path class="cls-1" d="M26.08,2.81s.48.25.7.36c-.21-.11-.3-.17-.33-.22-.1-.04-.22-.09-.37-.14Z"/>
  <path class="cls-1" d="M27.87,1.09l-.06-.07s.04.04.06.07Z"/>
  <path class="cls-1" d="M25.08,5.06c-.08-.03-.15-.05-.19-.07.06.03.13.05.19.07Z"/>
  <path class="cls-1" d="M.18,22.85s.06-.02.1-.02c-.06,0-.1.01-.1.02Z"/>
  <polygon class="cls-1" points="2.62 20.57 2.65 20.59 2.97 20.59 2.62 20.57"/>
  <path class="cls-1" d="M20.99,10.98s0,0,.01,0c-.04-.06-.04-.04-.01,0Z"/>
  <path class="cls-1" d="M15.29,21.42c.49.19.39.55.96.72-.19-.12-.6-.66-.96-.72Z"/>
  <path class="cls-1" d="M30.02,1.65s0,.04-.02.06c.03-.02.03-.04.02-.06Z"/>
  <path class="cls-1" d="M16.26,22.14h0s.06.02.06.02c-.02,0-.04-.01-.06-.02Z"/>
  <path class="cls-1" d="M19.89,13.81c.09.04.16.07.23.09-.05-.03-.12-.05-.23-.09Z"/>
  <path class="cls-1" d="M21.65,12.19l-.09.02c.06,0,.08,0,.09-.02Z"/>
  <path class="cls-1" d="M20.03,15.22c-.05,0-.12-.02-.08.05.03,0,.05.02.07.02-.06-.05-.08-.09.01-.07Z"/>
  <path class="cls-1" d="M19.43,16.29s.07.02.11.04v-.05s-.11.01-.11.01Z"/>
  <path class="cls-1" d="M1.98,26.85c.12-.1.27-.2.42-.29-.34.21-.57.08-.42.29Z"/>
  <path class="cls-1" d="M29.81,1.52c.13.06.19.1.21.13,0-.02,0-.03-.01-.05-.08-.03-.15-.07-.2-.08Z"/>
  <path class="cls-1" d="M23.88,17.42l-.17.14c.08-.02.14-.07.17-.14Z"/>
  <path class="cls-1" d="M12.37,30.65l-.02.09s.04-.02.02-.09Z"/>
  <path class="cls-1" d="M23.48,18.13c-.19-.07-.31-.09-.39-.09.03.03.06.06.11.09h.28Z"/>
  <path class="cls-1" d="M2.4,26.55h0s0,0,0,0Z"/>
  <path class="cls-1" d="M.55,25.74c.07.22.71-.18,1.12-.3.29.15-.46.32-.77.56.25.08.92-.09.95.03-.11.06-.14.1-.29.14.61-.1.24.46,1,.29-.05.04-.1.08-.15.11.31-.2.64-.38.89-.49.05.07.49-.07.08.18-.01-.05-.19.03-.33.08h.23c-.57.39-.27-.02-.73.22.3.07.9-.02.8.2-.57.37-.36-.19-.79.28l.11-.33c-.85.67,0-.16-.93.53,0,.39.47.15.47.53.36-.13.46-.31.82-.45.8,0-1.24,1.23-.3,1.02.42-.18,1.14-.66.92-.2l-.67.39c.15.31.99-.52.79.06-.27.14-.35-.04-.4.05-.34.55.44-.15.54-.02l-.5.46c.31.22.97.17,1.31.34-.15.13-.35.24-.42.46.65.1.8.8,1.18,1.45.16-.13.32-.27.47-.41.04.03-.04.28-.14.36.1.31.18-.33.37-.48.12.02,0,.38-.15.5.65-.29,1.37-.59,1.67.05l-.11.16c.32.29.52-1.14.74-.56l-.06.1c.33.18.66.05.98.04.33,0,.61.02.95.39-.12-.84.73.2.42-.94.51.45.48.67,1.1.84.15,0-.11-.75-.03-.93l.27.56-.09-.67.44.61.05-.21c-.07,0-.23-.18-.31-.35.05-.35.66.11.84.37.07-.24.13-.48.18-.72.13.21.1.33.12.5-.1-.68.4.52.31-.1-.11-.1-.19-.32-.26-.42.31.24.54.07.61-.18l.22.37c.38-.15.53-.64.83-.91-.24-.05-.69-.64-.65-.77l.46.46c-.21-.35-.25-.11-.46-.58.16-.04.56.49.63.71v-.29c.13.14.16.24.32.44-.21-.35.68.27.29-.32l.14.14c.32-.27.27-.57.48-.82-.39-.4-.22-.4-.48-.79.29-.04.8.09.94-.15-.08-.33-.31-.36-.5-.65.39.34.53.1.71.45.16-.3.21-.39.16-.96-.19-.1-.29-.12-.41-.26-.02-.11.27.01.45.18l.03.05c-.31-.83,1.83.12,1.23-.84l.03.05-.21-.64c.17-.08.24.32.57.41-.44-.84.48-.44.23-1.05,1.39.68.44-.8,1.43-.53l-.3-.19c-.24-.27.23.03.33.02-.23-.15-.32-.1-.45-.26.08-.86,1.3-1,1.99-1.49.23-.19-1.47-1.12-.57-.96l.51.44c-.37-.9.64-.97.34-1.8.11.11.28.21.25.25.47.14.24-.36-.1-.56.08-.05.32.16.51.22.3.04-.38-.56.06-.38.07.03.12.11.14.14-.16-.18.23-.28-.29-.49.33-.05-.02-.47.35-.45-.49-.4.43-.16-.31-.62.78.46.81.04.51-.28.22.17.3.04.61.27.06-.14-.02-.34-.44-.54,1.08.28-.5-.9.79-.37-.21-.62-.31-1.13-.32-1.58.79.44-.12.43.72.86-.15-.51-.74-1.06-.37-1.29.15-.03.32.23.44.33-.15-.5.41-.6.12-1.12.07.04.14.11.19.17,0-.07.19-.08-.18-.26l.07.11c-.58-.18-.99-.8-1.26-.95,1,.63.41-.16,1.65.67-.05-.07-.2-.21-.45-.33.1-.02.25.03.5.23-.09-.31-.52-.43-.42-.62.18.09.23.16.42.29-.3-.27-.59-.54-.36-.62.1.06.25.11.22.16.08-.3-.69-.93-.21-1.06.73.47.3.02.98.34l-.12-.26-.36-.09c.08-.14-.34-.5-.07-.52l.23.24v-.33s-.33.03-.33.03c-.28-.31-.86-.4-.58-.5.05.07.08-.14.51-.02h0c-.18-.17-.37-.35-.15-.38.23.08.73.38.89.43-.53-.34,0-.41-.55-.78.13.1.48.27.56.29l-.43-.28c.18,0,.25.03.53.17.18-.16-.88-.34-.4-.4.03.04.1.06.15.13.3-.15-.08-.6.25-.71.71.25.08.27.69.46.02-.37-.51-1.03-.21-1.26l-.1.02c-.94-.49.58,0,.2-.37.05.07.51.3.41.24.25-.14-.04-.54-.2-.99l.23.15c.28-.02.27-.27.45-.35-.23-.15-.16-.21-.54-.32,1.6.22-.41-1.12.93-.97-.02.05.17.2.19.17l-.09-.41c-.43-.16-.27-.07-.63-.15-.23-.15-.39-.32-.36-.4.22.26.68.3.94.34-.13-.05-.27-.13-.4-.18.82.17-.84-.4-.24-.4l.22.11c-.08-.13-.34-.34-.24-.4.51.17.19.19.59.37.03-.14-.82-.65-.28-.55.11.11.08.19.2.3.63.12.49.05.62,0h-.02s.35-.1.35-.1h-.18c-1.21-.72-.1-.44-.85-1.01.71.54.45.23,1,.48.18.01.39,0,.53.09-.41-.29.43-.02-.17-.44.18.07.06-.1.51.11-.09-.19-.33-.1-.55-.21-.53-.46.95-.17.22-.81-.24-.4-.83-.69-1.04-1.05.32.04.63.33.63.33.32-.02.31-.14.15-.34.15.09.29.12.51.16,0-.12-.63-.33-.31-.35.19.1.5.26.69.39-.12-.18-.41-.43-.53-.61.33.09.45.26.64.39-.09-.19-.15-.46-.63-.7h-.21s.44.16.52.23c.35.27-.24.1-.42.03l-.08-.13c-1.1-.34.04.4-.1.55l-.74-.38.57.43c-.22-.04-.66-.2-.74-.32-.43-.03.23.22-.24.15-.07-.02-.11-.04-.13-.06l.18.21c-.15-.09-.55-.2-.41-.23-.53.03.44.58-.18.41l-.04-.04c.14.4.55.26,1.12.75l-1.45-.43.55.26s-.1.06-.32-.04c.34.27.25.08.59.3-.57-.07.07.5-.84.16.41.23.39,0,.62.28-.98-.36.09.25-.41.19-.48-.25-.16-.26-.66-.32.81.44-.29.18-.18.36.67.29.18.36.32.64-.22-.11-.52.19-.83.26l-.11-.05c.66.33.45.45.54.64-.4-.18-.55-.27-.7-.42l-.05.12c.2.12.3.21.34.32l-.49-.25c-.04.17.45.58.02.64.46.22,1.38.41,1.59.77-.26-.1-.69-.29-.77-.39.02.03.18.16.06.15l-.39-.28c-.23.01.33.21.26.27-.36-.16-.28-.06-.56-.2-.03-.03.18,0,.05-.09-.1.06-.36.06-.65-.02.21.08.49.22.5.3-.05.17-.46-.14-.69-.13.23.15-.07.14.47.38-.02.05-.28-.06-.43-.11.2.19-.11.42.51.58h.05s.01,0,.02.02h0s0,0,0,0c.41.52-.56.43-.46.8l-.18-.08c.13.26-.04.41.29.71-.02.05-.38-.04-.58-.16.08.19.27.29-.11.33-.25-.27-.3-.09-.17-.23-.23.09-.53-.01-.12.39-.43-.27-.63-.15-.53-.01l.38.04c.03.12-.05.17-.12.23l-.58-.32c-.88-.02.97,1.18-.37.84.38.29.38-.03.83.28-.15.11-1.09-.15-1.11-.1-.43.04.79.61.46.72.23.08.81.33.93.58-.15.11-.98-.25-1.11-.43,0-.04.08-.03.15,0-.05-.09-.12-.19-.38-.25l.2.12c-.25-.03-.33.18-.66-.04.15.21.33.22.48.19-.4.04-.16.29-.46.38.13.03.4.12.38.15-.4.16.34.33.34.57-.38-.05-.75-.42-.58-.09-.28.01-.58-.26-.73-.39.32.38-.43.2-.56.26l-.13-.18c.07.11.05.15.02.2l.45.16c-.1.02-.13.06-.3-.03.25.2.73.31,1.05.61-.25-.04.12.34-.46.08.31-.13-.58-.26-.57-.5.05.07.02.11-.08.13-.07-.02-.11-.07-.14-.1-.61-.04.58.42.46.64-.3-.19-.63-.25-.58-.18.05-.09.55.23.75.43-.32.02.1.25.03.31l.16-.03c.3.19.22.24.27.4-.25-.12-.12-.18-.25-.2.5.4-.7-.04-.41.31-.25-.04-.6-.3-.77-.31.32.39-.53-.04-.29.32.45.17.35.11.7.45l-.14-.46.51.52c.05-.09-.16-.33-.06-.35.3.27.2.21.57.35-.7-.21.24.44-.27.36l-1.04-.56c-.58-.03.33.67-.08.81h.23c.39.27-.04.21.08.39-.34-.2-.5-.21-.74-.29.26.13-.13.19.54.59l-.52-.12c-.31.12.85.8.61.95-.34-.27-.64-.31-.83-.6-.04.07-.14.1.1.23-.24-.08.36.46,0,.34.13.11.49.33.42.39-.07-.03-.17-.1-.17-.1.17.1.16.26.58.4-1.2-.38-.28.67-1.3.33.03.22.03.48-.03.63-.1-.07-.17-.1-.12-.11-.43,0,.91.69.42.71-.62-.21-.23-.29-.48-.34-1.14-.63,0,.36-.74.12l-.04-.07c-.45-.11.26.53.07.66,0,0-.09-.07-.17-.1.49.47.53.82.58,1.09-.4-.32-.18-.22-.64-.46.01.12.72.41.75.65-.27-.09-.55-.11-1.02-.39l.07-.16c-.65-.3-.1.2-.25.22l-.26-.18c-.05.28.61.7.41.92l.21.1c.57.55-.44-.13-.04.32l-.69-.39c.1.19.44.72.46.96-.43-.41-.56-.75-.78-1.05-.06.08-.14.32.16.58-.04-.08-.17-.23-.05-.19.45.44.61.75.49.92-1.25-.88-.61.23-1.68-.32.26.61-.6.44-.76.82,1.05.58-.04.12.96.81,0,.12-.03.14-.1.1l-.76-.2c-.33-.16-.16-.23-.39-.39-.2.11-.47-.24-.81-.33.37.24.46.43.26.42l.55.21c.35.62-.97-.42-.63.2l-.25-.31c.09.26-.33.42.34,1.14-.13-.07-.41-.25-.44-.36-.33.17.32,1.28-.33,1.09l-.21-.21c.02.1.35.45.07.31-.09-.08-.21-.22-.24-.2.06.09.28.47.09.42l-.2-.28c-.51-.02.27.94.21,1.29-.64-.6-1.03-.62-1.22-.63l-.09-.09c-.33.18.07.98.03,1.46-.79-.58-.81.19-1.39-.06.13.1.41.55.41.66-.17-.1.18.63-.28-.04h.03c-.51-.62-.5-.35-.6-.31l.57.89c-.56-.56-.63-.36-.7-.12-.07.24-.15.46-.5-.13.05.26-.02.29.02.56l-.21-.53c-.21-.06-.29-.1-.4.06l-.08-.4c-.07-.02.3,1.61.18,1.68l-.2-.82c-.21.07-.33-.72-.47.09,0-.12.01-.37.03-.41-.09,0-.07-.6-.24.56.11-.76-.09-.05-.29.21l.17-.53c-.26.66-.33.84-.53.98,0-.08.14-.42.12-.28.02-.3-.28.47-.28.14l.19-.3c-.07-.08-.14.09-.39.42-.18.15-.14-.25.12-.67-.17.25-.46.57-.44.41.1-.16.19-.24.23-.29.08-.42-.63.32-.4-.2.12-.14.17-.22.2-.27.11.1.18.2.15.23.3-.41.29-.54.78-1.06-.27.27-.95.82-.88.56.03-.04.06-.08.11-.14l.05-.03c.02-.06-.03-.04-.11,0,.03-.09.06-.15.04-.18.29-.31.08-.25.05-.31-.41.38-.41.26-.69.63.02-.03.06-.04.11-.02.02,0,.03,0,.06-.02l-.04.03s.09.05.14.09c-.24.16-.46.28-.28.02-.29.22-.59.44-.74.54.5-.6.72-1.01,1.09-1.33-.37.03-.45-.23-1.4.22-.15.02.21-.23.34-.35.11-.03.12.02.26-.05-.29.04-.29-.26-.94.09.19-.32.63-.27.41-.4l.21-.09c.4-.49-.09-.41-.56-.38-.48.03-.91-.02-.34-.57-.07.07-.1.11-.21.17.36-.79-1.08-.96-.27-1.87.16-.22-.3-.1-.67-.1l.57-.21-.72.02c-.56-.13,1.32-.79.32-.86l-.39.13c.05-.13-.31-.31.16-.38-.07,0-.42.04-.22-.04l.31-.06c-.2-.06-.38-.11-.58-.18.2-.23,1.24-.16,1.27-.39-.12-.02-.93-.15-1.14-.13-.01.04-.19.1-.51.12l-.17-.1c-.93,0-1.9-.19-2.52.31.2.1.39.2.59.26l-.44.13c-.02-.07-.04-.14-.05-.24-.41.21-.02.23.24.29-.24.05-.4.11-.48.18.31.05.61.09.92.12-.35.09-.73,0-.9.21.43.04.79-.24,1.09-.11-.4.18-.74.22-.36.28-.23.06-.39.07-.5.03.31.06.18.29.68.24-.49.23.22.34-.64.54.21-.01.72.03.78.12-1.07.09.04.39-1.06.65.95-.13.55.38,1.13.46-.08.01-.23.03-.19,0-.03.16-.29.29-.42.43.75-.24.99-.09,1.48-.15-.65.42-.9.22-1.56.52.59-.22.7.07,1.17-.17-.39.29-.17.18-.75.48.92-.33.2.06.8-.07-.38.36-.83.39-.48.48-.24.21-.63.17-.63.17ZM4.84,29.29s0,0,0,0c-.04-.02-.08-.04-.1-.06.02,0,.05.02.11.05ZM5.21,29.58c-.03-.05-.08-.1-.14-.15.11-.16.26-.3.29-.26-.1.08-.09.24-.14.41ZM7.32,26.23c.08-.03.01.06-.07.14-.02,0-.05,0-.1,0l-.05.04c.08-.07.16-.13.22-.18Z"/>
  <path class="cls-1" d="M6.73,26.68s-.03.02-.04.01c-.03.04-.05.07-.07.1l.14-.11h-.02Z"/>
  <path class="cls-1" d="M25.44,6.09h-.02s.05,0,.08.02c-.03,0-.04-.01-.06-.02Z"/>
  <polygon class="cls-1" points="12.01 31.14 11.95 31.01 11.97 31.14 12.01 31.14"/>
  <path class="cls-1" d="M28.02,5.01s.1.03.14.03c-.03-.01-.09-.02-.14-.03Z"/>
  <path class="cls-1" d="M28.49,4.25l.23-.04c-.13,0-.19.02-.23.04Z"/>
  <path class="cls-1" d="M29.01,3.74c-.09-.04-.16-.08-.22-.11h0s.22.11.22.11Z"/>
  <path class="cls-1" d="M25.02,13.87s0,.02.01.04c.07.11.05.05-.01-.04Z"/>
  <path class="cls-1" d="M25.29,10.39c.08.08.15.15.19.21.06-.03.09-.07-.19-.21Z"/>
  <polygon class="cls-1" points="23.9 17.41 23.89 17.4 23.88 17.42 23.9 17.41"/>
  <path class="cls-1" d="M25.41,10.73c.13,0,.12-.06.07-.13-.05.03-.13.05-.07.13Z"/>
  <path class="cls-1" d="M30.38,1.09l.03-.02s-.06-.03-.08-.04l.05.06Z"/>
  <path class="cls-1" d="M30.33,1.04l-.05-.06s0,.03.05.06Z"/>
  <path class="cls-1" d="M30.18.85l.1.12s.04-.05-.1-.12Z"/>
  <path class="cls-1" d="M29.8,1.84l.19.09s-.1-.05-.19-.09Z"/>
  <path class="cls-1" d="M29.75,2.11c.07-.04.46.01.38-.12l-.15-.07c.26.15-.53,0-.23.19Z"/>
  <path class="cls-1" d="M26.99,2.2l.24-.15c-.22-.05-.5-.11-.51-.23-.71.01.47.13.28.37Z"/>
  <path class="cls-1" d="M26.42,2.72c-.05-.15-.29-.12-.4-.18.15.15.19.19.4.18Z"/>
  <path class="cls-1" d="M24.37,7.35l-.46-.23c.03.11.18.08.46.23Z"/>
  <polygon class="cls-1" points="26.35 9.35 26.68 9.4 26.27 9.16 26.35 9.35"/>
  <polygon class="cls-1" points="22.81 8.31 22.77 8.24 22.87 8.46 22.81 8.31"/>
  <path class="cls-1" d="M19.11,15.85l.56.29c-.07-.11-.68-.47-.56-.29Z"/>
  <path class="cls-1" d="M17.79,19.28c-.29-.14-.51-.16-.29.06.08-.04.33.02.29-.06Z"/>
  <polygon class="cls-1" points="10.44 26.24 10.38 26.04 10.38 26.23 10.44 26.24"/>
</svg>