<?xml version="1.0" encoding="utf-8"?>
<!-- Generator: Adobe Illustrator 28.3.0, SVG Export Plug-In . SVG Version: 6.00 Build 0)  -->
<svg version="1.1" id="Outline" xmlns="http://www.w3.org/2000/svg" xmlns:xlink="http://www.w3.org/1999/xlink" x="0px" y="0px"
	 viewBox="0 0 512 512" style="enable-background:new 0 0 512 512;" xml:space="preserve">
<style type="text/css">
	.st0{fill:#FFA656;}
</style>
<path class="st0" d="M427.7,221.7H290.3V84.3c0-19-15.4-34.3-34.3-34.3l0,0c-19,0-34.3,15.4-34.3,34.3v137.3H84.3
	C65.4,221.7,50,237,50,256l0,0c0,19,15.4,34.3,34.3,34.3h137.3v137.3c0,19,15.4,34.3,34.3,34.3l0,0c19,0,34.3-15.4,34.3-34.3V290.3
	h137.3c19,0,34.3-15.4,34.3-34.3l0,0C462,237,446.6,221.7,427.7,221.7z"/>
</svg>
