<?xml version="1.0" encoding="utf-8"?>
<!-- Generator: Adobe Illustrator 28.3.0, SVG Export Plug-In . SVG Version: 6.00 Build 0)  -->
<svg version="1.1" id="navbar" xmlns="http://www.w3.org/2000/svg" xmlns:xlink="http://www.w3.org/1999/xlink" x="0px" y="0px"
	 viewBox="0 0 110.2 47.7" style="enable-background:new 0 0 110.2 47.7;" xml:space="preserve">
<style type="text/css">
	.st0{fill:#FFFFFF;}
</style>
<g>
	<g>
		<path class="st0" d="M102.7,26.5c0.6-0.2,0.8-0.5,0.8-0.7s-0.3-0.4-0.9-0.5L99.2,25l0.1,16.6l3.3,0.1L102.7,26.5L102.7,26.5z"/>
		<path class="st0" d="M98.4,33.9L98.4,33.9l-2.5-2.7l-1.8,2v-7.3H98l0,0c0.4,0,1.2,0.1-0.1-1.1l0,0l-2.3-2.3L94,24.2h-8.2l0.3,1.7
			h3.5v7.6h-4.3l0.3,1.5h4v11.7l4.4-0.8L94.1,35h4.3C98.8,35,99.6,35.2,98.4,33.9L98.4,33.9z"/>
	</g>
	<path class="st0" d="M108.2,46.8c0.6-0.5,1-1.3,1-2.2V23.9c0.7-0.4,1-0.7,1-1c0-0.2-0.3-0.4-0.9-0.5l-4.5-0.4v21.2
		c0,0,0.2,3.1-0.8,4.4L108.2,46.8L108.2,46.8z"/>
</g>
<g>
	<path class="st0" d="M76.3,43.3v-4.8c0.6-0.2,0.8-0.5,0.8-0.7s-0.1-0.3-0.4-0.6l-2.9-2l-1.6,1.4h-2.3l-3.7-1v9.7L70,45v-2.2h2.1
		v1.1L76.3,43.3L76.3,43.3z M70,41.5v-3.4h2.1v3.4H70z"/>
	<path class="st0" d="M83.2,24l-3.8-2.3l-1.7,2H64.6L60.4,23v11.9c-0.1,2-0.7,8.6-3.7,12.3c0,0,7.4-1.1,8-12.3l0,0v-0.3
		c0-0.1,0-0.2,0-0.4v-1l0.2,0.9h12.4c0.3,0.1,1-0.1,0.2-0.9l0,0L77.3,33c-0.1-0.1-0.1-0.1-0.2-0.2l-1.8-1.9L74,32.7h-1V30h3.9
		c0.3,0,1.3,0.1,0-1.2l0,0L75.1,27l-1.4,1.5H73v-1.2c0.5-0.2,0.8-0.4,0.8-0.6c0-0.3-0.3-0.4-0.9-0.5L69,26v2.6h-3.5l0.3,1.4H69v2.6
		h-4.3v-7.4H78v18.1c0,0,0.2,3.1-0.8,4.4l4.2-0.8c0.6-0.5,1-1.3,1-2.2V25.5l0.2-0.1c0.7-0.4,1.1-0.6,1.1-0.9
		C83.6,24.3,83.5,24.2,83.2,24L83.2,24z"/>
</g>
<path class="st0" d="M31.6,7c0.5-0.7,1-1.4,1.5-2.1c0,0,1.4,0.1,1.6-1c0,0,0.1-0.8-1.2-1.2L25.4,0c0,0-8.1,18-25.4,28.3
	c0,0,16.4-3.2,29.2-18.2c0.6,0.8,2.6,3.1,5.6,6c7.1,8.3,17.6,11.6,17.6,11.6c0.8-1.7,8.2-9.1,8.2-9.1C43.7,17.1,33.3,8.5,31.6,7
	L31.6,7z"/>
<path class="st0" d="M39.4,23.4l-4.7-4.2c0,0-0.8-0.8-1.4,0.2l-2.4,3.5l-14.4-0.1l0.4,2h21.7C38.7,24.9,40.7,25.1,39.4,23.4
	L39.4,23.4z"/>
<path class="st0" d="M46.1,31l-5.8-2.7l-2.8,1.9H10.4l0.5,2.1l25.7-0.1L28.3,44c-1.8,2.1-1.4,1.7-2.4,2.5l7.8,1.2
	c1.9,0.2,3.4-2,3.4-2L45.2,34c1-0.3,1.5-0.9,1.5-0.9C47.8,32,46,31,46.1,31L46.1,31z"/>
</svg>
